<?xml version="1.0" encoding="utf-8"?>
<!-- Generator: Adobe Illustrator 18.1.1, SVG Export Plug-In . SVG Version: 6.00 Build 0)  -->
<svg version="1.1" xmlns="http://www.w3.org/2000/svg" xmlns:xlink="http://www.w3.org/1999/xlink" x="0px" y="0px" width="60px"
	 height="23.333px" viewBox="0 0 60 23.333" enable-background="new 0 0 60 23.333" xml:space="preserve">
<g id="Layer_1">
</g>
<g id="Layer_4">
</g>
<g id="Layer_2">
</g>
<g id="Layer_3">
	<g>
		<path fill="#E5007E" d="M57.166,17.646L31.624,2.232c-0.741-0.447-1.731-0.45-2.475-0.007L3.221,17.638
			c-1.731,1.029-0.878,3.349,1.231,3.349h51.47C58.024,20.987,58.882,18.682,57.166,17.646z"/>
	</g>
	<g>
		<g>
			<path fill="#FFFFFF" d="M32.864,18.154h-5.163v-1.393c1.646-2.139,3.081-3.785,3.081-5.459c0-0.915-0.422-1.308-1.28-1.308
				c-0.731,0-1.576,0.281-1.576,0.281h-0.084V8.658c0,0,0.844-0.268,1.941-0.268c2.11,0,3.067,0.971,3.067,2.645
				c0,2.181-1.632,3.771-2.983,5.444h2.997V18.154z"/>
		</g>
	</g>
</g>
<g id="Layer_5">
</g>
</svg>
