<?xml version="1.0" encoding="utf-8"?>
<!-- Generator: Adobe Illustrator 18.1.1, SVG Export Plug-In . SVG Version: 6.00 Build 0)  -->
<svg version="1.1" xmlns="http://www.w3.org/2000/svg" xmlns:xlink="http://www.w3.org/1999/xlink" x="0px" y="0px" width="60px"
	 height="23.333px" viewBox="0 0 60 23.333" enable-background="new 0 0 60 23.333" xml:space="preserve">
<g id="Layer_1">
</g>
<g id="Layer_4">
</g>
<g id="Layer_2">
</g>
<g id="Layer_3">
	<g>
		<path fill="#E5007E" d="M57.499,17.646L31.957,2.232c-0.741-0.447-1.731-0.45-2.475-0.007L3.554,17.638
			c-1.731,1.029-0.878,3.349,1.231,3.349h51.47C58.357,20.987,59.215,18.682,57.499,17.646z"/>
	</g>
	<g>
		<g>
			<path fill="#FFFFFF" d="M28.695,12.358h0.689c0.366,0,0.802-0.014,1.125-0.225c0.239-0.155,0.45-0.408,0.45-1.013
				c0-0.76-0.337-1.14-1.224-1.14c-0.731,0-1.505,0.253-1.505,0.253h-0.084v-1.59c0,0,0.746-0.253,1.829-0.253
				c1.998,0,2.997,0.873,2.997,2.392c0,1.238-0.647,1.97-1.646,2.209c1.098,0.155,1.857,0.985,1.857,2.377
				c0,1.674-1.098,2.87-3.405,2.87c-1.055,0-1.716-0.253-1.716-0.253v-1.59h0.098c0,0,0.746,0.253,1.52,0.253
				c0.985,0,1.477-0.394,1.477-1.336c0-0.591-0.197-0.957-0.534-1.154c-0.366-0.211-0.816-0.197-1.14-0.197h-0.788V12.358z"/>
		</g>
	</g>
</g>
<g id="Layer_5">
</g>
</svg>
