<?xml version="1.0" encoding="utf-8"?>
<!-- Generator: Adobe Illustrator 18.1.1, SVG Export Plug-In . SVG Version: 6.00 Build 0)  -->
<svg version="1.1" xmlns="http://www.w3.org/2000/svg" xmlns:xlink="http://www.w3.org/1999/xlink" x="0px" y="0px" width="60px"
	 height="23.333px" viewBox="0 0 60 23.333" enable-background="new 0 0 60 23.333" xml:space="preserve">
<g id="Layer_1">
</g>
<g id="Layer_4">
</g>
<g id="Layer_2">
</g>
<g id="Layer_3">
	<g>
		<path fill="#E95A0C" d="M56.833,17.313L31.291,1.899c-0.741-0.447-1.731-0.45-2.475-0.007L2.887,17.305
			c-1.731,1.029-0.878,3.349,1.231,3.349h51.47C57.69,20.654,58.549,18.348,56.833,17.313z"/>
	</g>
	<g>
		<g>
			<path fill="#FFFFFF" d="M28.028,12.024h0.689c0.366,0,0.802-0.015,1.125-0.226c0.239-0.154,0.45-0.407,0.45-1.012
				c0-0.76-0.337-1.141-1.224-1.141c-0.731,0-1.505,0.254-1.505,0.254H27.48v-1.59c0,0,0.746-0.254,1.829-0.254
				c1.998,0,2.997,0.873,2.997,2.393c0,1.238-0.647,1.969-1.646,2.209c1.098,0.154,1.857,0.984,1.857,2.377
				c0,1.674-1.098,2.87-3.405,2.87c-1.055,0-1.716-0.253-1.716-0.253v-1.59h0.098c0,0,0.746,0.253,1.52,0.253
				c0.985,0,1.477-0.394,1.477-1.337c0-0.59-0.197-0.956-0.534-1.153c-0.366-0.211-0.816-0.196-1.14-0.196h-0.788V12.024z"/>
		</g>
	</g>
</g>
<g id="Layer_5">
</g>
</svg>
